# xmcd CD database file
#
# Track frame offsets:
#	150
#	11946
#	24462
#	33239
#	44887
#	61306
#	73843
#	87097
#	100553
#	101450
#	110554
#	121589
#	135200
#	144176
#	159212
#
# Disc length: 2277 seconds
#
# Revision: 0
# Processed by: cddbd v1.5.1PL2 Copyright (c) Steve Scherf et al.
# Submitted via: Feurio! 1.68 - http://www.feurio.com
#
DISCID=b808e30f
DTITLE=U.S. Bombs - We Are the Problem
DYEAR=1900
DGENRE=Punk Rock
TTITLE0=We Are the Problem
TTITLE1=Don't Get Me Wrong
TTITLE2=Do It Again
TTITLE3=Revolution Weekend
TTITLE4=Heartbreak Motel
TTITLE5=4th of July
TTITLE6=Destroy the Nation
TTITLE7=Hammered Again
TTITLE8=Last Dischord
TTITLE9=Just Like You
TTITLE10=Locked in My Skin
TTITLE11=Guns of the West
TTITLE12=Back Inside
TTITLE13=Tonight
TTITLE14=Cheers
EXTD=
EXTT0=
EXTT1=
EXTT2=
EXTT3=
EXTT4=
EXTT5=
EXTT6=
EXTT7=
EXTT8=
EXTT9=
EXTT10=
EXTT11=
EXTT12=
EXTT13=
EXTT14=
PLAYORDER=
